<svg width="28" height="28" viewBox="0 0 28 28" fill="none" xmlns="http://www.w3.org/2000/svg">
<path fill-rule="evenodd" clip-rule="evenodd" d="M14 3.5C11.2152 3.5 8.54451 4.60625 6.57538 6.57538C4.60625 8.54451 3.5 11.2152 3.5 14C3.5 16.7848 4.60625 19.4555 6.57538 21.4246C8.54451 23.3938 11.2152 24.5 14 24.5H19.25C20.881 24.5 21.6965 24.5 22.3393 24.234C22.7641 24.0581 23.1501 23.8002 23.4752 23.4752C23.8002 23.1501 24.0581 22.7641 24.234 22.3393C24.5 21.6965 24.5 20.881 24.5 19.25V14C24.5 11.2152 23.3938 8.54451 21.4246 6.57538C19.4555 4.60625 16.7848 3.5 14 3.5ZM9.33333 12.8333C9.33333 12.5239 9.45625 12.2272 9.67504 12.0084C9.89383 11.7896 10.1906 11.6667 10.5 11.6667H17.5C17.8094 11.6667 18.1062 11.7896 18.325 12.0084C18.5437 12.2272 18.6667 12.5239 18.6667 12.8333C18.6667 13.1428 18.5437 13.4395 18.325 13.6583C18.1062 13.8771 17.8094 14 17.5 14H10.5C10.1906 14 9.89383 13.8771 9.67504 13.6583C9.45625 13.4395 9.33333 13.1428 9.33333 12.8333ZM12.8333 17.5C12.8333 17.1906 12.9562 16.8938 13.175 16.675C13.3938 16.4562 13.6906 16.3333 14 16.3333H17.5C17.8094 16.3333 18.1062 16.4562 18.325 16.675C18.5437 16.8938 18.6667 17.1906 18.6667 17.5C18.6667 17.8094 18.5437 18.1062 18.325 18.325C18.1062 18.5438 17.8094 18.6667 17.5 18.6667H14C13.6906 18.6667 13.3938 18.5438 13.175 18.325C12.9562 18.1062 12.8333 17.8094 12.8333 17.5Z" fill="#FFC62F"/>
</svg>
