<svg width="84" height="30" viewBox="0 0 84 30" fill="none" xmlns="http://www.w3.org/2000/svg">
<path d="M20.0133 2.36667C20.5067 2.36667 20.9378 2.46222 21.3067 2.65333C21.68 2.84 21.9667 3.11111 22.1667 3.46667C22.3711 3.81778 22.4733 4.22889 22.4733 4.7C22.4733 5.17111 22.3711 5.58 22.1667 5.92667C21.9667 6.27333 21.68 6.54 21.3067 6.72667C20.9378 6.90889 20.5067 7 20.0133 7H18.5V2.36667H20.0133ZM20.0133 6.38C20.5556 6.38 20.9711 6.23333 21.26 5.94C21.5489 5.64667 21.6933 5.23333 21.6933 4.7C21.6933 4.16222 21.5489 3.74222 21.26 3.44C20.9711 3.13778 20.5556 2.98667 20.0133 2.98667H19.26V6.38H20.0133ZM26.5932 5.07333C26.5932 5.21111 26.5843 5.33556 26.5666 5.44667H23.7599C23.7821 5.74 23.891 5.97556 24.0866 6.15333C24.2821 6.33111 24.5221 6.42 24.8066 6.42C25.2155 6.42 25.5043 6.24889 25.6732 5.90667H26.4932C26.3821 6.24444 26.1799 6.52222 25.8866 6.74C25.5977 6.95333 25.2377 7.06 24.8066 7.06C24.4555 7.06 24.1399 6.98222 23.8599 6.82667C23.5843 6.66667 23.3666 6.44444 23.2066 6.16C23.051 5.87111 22.9732 5.53778 22.9732 5.16C22.9732 4.78222 23.0488 4.45111 23.1999 4.16667C23.3555 3.87778 23.571 3.65556 23.8466 3.5C24.1266 3.34444 24.4466 3.26667 24.8066 3.26667C25.1532 3.26667 25.4621 3.34222 25.7332 3.49333C26.0043 3.64444 26.2155 3.85778 26.3666 4.13333C26.5177 4.40444 26.5932 4.71778 26.5932 5.07333ZM25.7999 4.83333C25.7955 4.55333 25.6955 4.32889 25.4999 4.16C25.3043 3.99111 25.0621 3.90667 24.7732 3.90667C24.511 3.90667 24.2866 3.99111 24.0999 4.16C23.9132 4.32444 23.8021 4.54889 23.7666 4.83333H25.7999ZM28.7611 6.32L29.8011 3.32667H30.6078L29.2078 7H28.3011L26.9078 3.32667H27.7211L28.7611 6.32ZM34.549 5.07333C34.549 5.21111 34.5401 5.33556 34.5223 5.44667H31.7156C31.7378 5.74 31.8467 5.97556 32.0423 6.15333C32.2378 6.33111 32.4778 6.42 32.7623 6.42C33.1712 6.42 33.4601 6.24889 33.629 5.90667H34.449C34.3378 6.24444 34.1356 6.52222 33.8423 6.74C33.5534 6.95333 33.1934 7.06 32.7623 7.06C32.4112 7.06 32.0956 6.98222 31.8156 6.82667C31.5401 6.66667 31.3223 6.44444 31.1623 6.16C31.0067 5.87111 30.929 5.53778 30.929 5.16C30.929 4.78222 31.0045 4.45111 31.1556 4.16667C31.3112 3.87778 31.5267 3.65556 31.8023 3.5C32.0823 3.34444 32.4023 3.26667 32.7623 3.26667C33.109 3.26667 33.4178 3.34222 33.689 3.49333C33.9601 3.64444 34.1712 3.85778 34.3223 4.13333C34.4734 4.40444 34.549 4.71778 34.549 5.07333ZM33.7556 4.83333C33.7512 4.55333 33.6512 4.32889 33.4556 4.16C33.2601 3.99111 33.0178 3.90667 32.729 3.90667C32.4667 3.90667 32.2423 3.99111 32.0556 4.16C31.869 4.32444 31.7578 4.54889 31.7223 4.83333H33.7556ZM36.0569 2.06667V7H35.2969V2.06667H36.0569ZM38.648 7.06C38.3014 7.06 37.988 6.98222 37.708 6.82667C37.428 6.66667 37.208 6.44444 37.048 6.16C36.888 5.87111 36.808 5.53778 36.808 5.16C36.808 4.78667 36.8902 4.45556 37.0547 4.16667C37.2191 3.87778 37.4436 3.65556 37.728 3.5C38.0125 3.34444 38.3302 3.26667 38.6814 3.26667C39.0325 3.26667 39.3502 3.34444 39.6347 3.5C39.9191 3.65556 40.1436 3.87778 40.308 4.16667C40.4725 4.45556 40.5547 4.78667 40.5547 5.16C40.5547 5.53333 40.4702 5.86444 40.3014 6.15333C40.1325 6.44222 39.9014 6.66667 39.608 6.82667C39.3191 6.98222 38.9991 7.06 38.648 7.06ZM38.648 6.4C38.8436 6.4 39.0258 6.35333 39.1947 6.26C39.368 6.16667 39.508 6.02667 39.6147 5.84C39.7214 5.65333 39.7747 5.42667 39.7747 5.16C39.7747 4.89333 39.7236 4.66889 39.6214 4.48667C39.5191 4.3 39.3836 4.16 39.2147 4.06667C39.0458 3.97333 38.8636 3.92667 38.668 3.92667C38.4725 3.92667 38.2902 3.97333 38.1214 4.06667C37.9569 4.16 37.8258 4.3 37.728 4.48667C37.6302 4.66889 37.5814 4.89333 37.5814 5.16C37.5814 5.55556 37.6814 5.86222 37.8814 6.08C38.0858 6.29333 38.3414 6.4 38.648 6.4ZM42.066 3.86667C42.1949 3.69778 42.3704 3.55556 42.5927 3.44C42.8149 3.32444 43.066 3.26667 43.346 3.26667C43.666 3.26667 43.9571 3.34667 44.2193 3.50667C44.486 3.66222 44.6949 3.88222 44.846 4.16667C44.9971 4.45111 45.0727 4.77778 45.0727 5.14667C45.0727 5.51556 44.9971 5.84667 44.846 6.14C44.6949 6.42889 44.486 6.65556 44.2193 6.82C43.9571 6.98 43.666 7.06 43.346 7.06C43.066 7.06 42.8171 7.00444 42.5993 6.89333C42.3815 6.77778 42.2038 6.63556 42.066 6.46667V8.74667H41.306V3.32667H42.066V3.86667ZM44.2993 5.14667C44.2993 4.89333 44.246 4.67556 44.1393 4.49333C44.0371 4.30667 43.8993 4.16667 43.726 4.07333C43.5571 3.97556 43.3749 3.92667 43.1793 3.92667C42.9882 3.92667 42.806 3.97556 42.6327 4.07333C42.4638 4.17111 42.326 4.31333 42.2193 4.5C42.1171 4.68667 42.066 4.90667 42.066 5.16C42.066 5.41333 42.1171 5.63556 42.2193 5.82667C42.326 6.01333 42.4638 6.15556 42.6327 6.25333C42.806 6.35111 42.9882 6.4 43.1793 6.4C43.3749 6.4 43.5571 6.35111 43.726 6.25333C43.8993 6.15111 44.0371 6.00444 44.1393 5.81333C44.246 5.62222 44.2993 5.4 44.2993 5.14667ZM49.1909 5.07333C49.1909 5.21111 49.182 5.33556 49.1642 5.44667H46.3576C46.3798 5.74 46.4887 5.97556 46.6842 6.15333C46.8798 6.33111 47.1198 6.42 47.4042 6.42C47.8131 6.42 48.102 6.24889 48.2709 5.90667H49.0909C48.9798 6.24444 48.7776 6.52222 48.4842 6.74C48.1953 6.95333 47.8353 7.06 47.4042 7.06C47.0531 7.06 46.7376 6.98222 46.4576 6.82667C46.182 6.66667 45.9642 6.44444 45.8042 6.16C45.6487 5.87111 45.5709 5.53778 45.5709 5.16C45.5709 4.78222 45.6464 4.45111 45.7976 4.16667C45.9531 3.87778 46.1687 3.65556 46.4442 3.5C46.7242 3.34444 47.0442 3.26667 47.4042 3.26667C47.7509 3.26667 48.0598 3.34222 48.3309 3.49333C48.602 3.64444 48.8131 3.85778 48.9642 4.13333C49.1153 4.40444 49.1909 4.71778 49.1909 5.07333ZM48.3976 4.83333C48.3931 4.55333 48.2931 4.32889 48.0975 4.16C47.902 3.99111 47.6598 3.90667 47.3709 3.90667C47.1087 3.90667 46.8842 3.99111 46.6976 4.16C46.5109 4.32444 46.3998 4.54889 46.3642 4.83333H48.3976ZM49.6855 5.14667C49.6855 4.77778 49.761 4.45111 49.9121 4.16667C50.0677 3.88222 50.2766 3.66222 50.5388 3.50667C50.8055 3.34667 51.101 3.26667 51.4255 3.26667C51.6655 3.26667 51.901 3.32 52.1321 3.42667C52.3677 3.52889 52.5544 3.66667 52.6921 3.84V2.06667H53.4588V7H52.6921V6.44667C52.5677 6.62444 52.3944 6.77111 52.1721 6.88667C51.9544 7.00222 51.7032 7.06 51.4188 7.06C51.0988 7.06 50.8055 6.98 50.5388 6.82C50.2766 6.65556 50.0677 6.42889 49.9121 6.14C49.761 5.84667 49.6855 5.51556 49.6855 5.14667ZM52.6921 5.16C52.6921 4.90667 52.6388 4.68667 52.5321 4.5C52.4299 4.31333 52.2944 4.17111 52.1255 4.07333C51.9566 3.97556 51.7744 3.92667 51.5788 3.92667C51.3832 3.92667 51.201 3.97556 51.0321 4.07333C50.8632 4.16667 50.7255 4.30667 50.6188 4.49333C50.5166 4.67556 50.4655 4.89333 50.4655 5.14667C50.4655 5.4 50.5166 5.62222 50.6188 5.81333C50.7255 6.00444 50.8632 6.15111 51.0321 6.25333C51.2055 6.35111 51.3877 6.4 51.5788 6.4C51.7744 6.4 51.9566 6.35111 52.1255 6.25333C52.2944 6.15556 52.4299 6.01333 52.5321 5.82667C52.6388 5.63556 52.6921 5.41333 52.6921 5.16ZM56.9488 3.87333C57.0777 3.69556 57.2532 3.55111 57.4755 3.44C57.7021 3.32444 57.9532 3.26667 58.2288 3.26667C58.5532 3.26667 58.8466 3.34444 59.1088 3.5C59.371 3.65556 59.5777 3.87778 59.7288 4.16667C59.8799 4.45111 59.9555 4.77778 59.9555 5.14667C59.9555 5.51556 59.8799 5.84667 59.7288 6.14C59.5777 6.42889 59.3688 6.65556 59.1021 6.82C58.8399 6.98 58.5488 7.06 58.2288 7.06C57.9444 7.06 57.691 7.00444 57.4688 6.89333C57.251 6.78222 57.0777 6.64 56.9488 6.46667V7H56.1888V2.06667H56.9488V3.87333ZM59.1821 5.14667C59.1821 4.89333 59.1288 4.67556 59.0221 4.49333C58.9199 4.30667 58.7821 4.16667 58.6088 4.07333C58.4399 3.97556 58.2577 3.92667 58.0621 3.92667C57.871 3.92667 57.6888 3.97556 57.5155 4.07333C57.3466 4.17111 57.2088 4.31333 57.1021 4.5C56.9999 4.68667 56.9488 4.90667 56.9488 5.16C56.9488 5.41333 56.9999 5.63556 57.1021 5.82667C57.2088 6.01333 57.3466 6.15556 57.5155 6.25333C57.6888 6.35111 57.871 6.4 58.0621 6.4C58.2577 6.4 58.4399 6.35111 58.6088 6.25333C58.7821 6.15111 58.9199 6.00444 59.0221 5.81333C59.1288 5.62222 59.1821 5.4 59.1821 5.14667ZM64.0137 3.32667L61.7604 8.72667H60.9737L61.7204 6.94L60.2737 3.32667H61.1204L62.1537 6.12667L63.227 3.32667H64.0137Z" fill="#333333"/>
<g clip-path="url(#clip0_40_56)">
<path d="M10.2901 24.4074C11.3538 24.4074 12.4175 23.8148 12.9945 22.8888L13.932 23.5C13.1567 24.7407 11.7324 25.5555 10.272 25.5555C7.56765 25.5 5.94501 23.2407 5.94501 21.1111C5.94501 18.6851 7.89218 16.7037 10.272 16.6666C11.8406 16.6666 13.3731 17.5926 14.0582 18.9629L14.2926 19.4259L8.01838 23.4629C8.55926 24 9.29846 24.3888 10.2901 24.4074ZM7.06283 21.1111C7.06283 21.5555 7.171 22.037 7.38736 22.5185L12.7962 19.0555C12.2192 18.2963 11.2456 17.8148 10.272 17.8148C8.50517 17.8333 7.06283 19.3148 7.06283 21.1111ZM23.2126 21.1111V25.5555H22.0948V21.1111C22.0768 19.2963 20.6344 17.7963 18.8856 17.7963C17.5875 17.7963 15.7124 18.8333 15.6763 21.1296V25.5555H14.5585V21.1111C14.6126 18.3148 16.8122 16.6666 18.8856 16.6666C21.2474 16.6666 23.1765 18.6481 23.2126 21.1111ZM32.421 21.1111V25.5555H31.3031V21.1111C31.2851 19.2963 29.8428 17.7963 28.0939 17.7963C26.7958 17.7963 24.9208 18.8333 24.8847 21.1296V25.5555H23.7669V21.1111C23.821 18.3148 26.0205 16.6666 28.0939 16.6666C30.4558 16.6666 32.3849 18.6481 32.421 21.1111ZM37.158 24.4074C38.2217 24.4074 39.2854 23.8148 39.8624 22.8888L40.7999 23.5C40.0246 24.7407 38.6003 25.5555 37.1399 25.5555C34.4355 25.5 32.8129 23.2407 32.8129 21.1111C32.8129 18.6851 34.76 16.7037 37.1399 16.6666C38.7085 16.6666 40.241 17.5926 40.9261 18.9629L41.1605 19.4259L34.8863 23.4629C35.4271 24 36.1663 24.3888 37.158 24.4074ZM33.9307 21.1111C33.9307 21.5555 34.0389 22.037 34.2552 22.5185L39.664 19.0555C39.0871 18.2963 38.1135 17.8148 37.1399 17.8148C35.373 17.8333 33.9307 19.3148 33.9307 21.1111ZM42.4768 24.1666C42.6211 24.3333 42.6932 24.5185 42.6932 24.7407C42.6932 25.2037 42.3506 25.5555 41.8999 25.5555C41.7016 25.5555 41.5032 25.4814 41.341 25.3148C41.1967 25.1481 41.1066 24.9629 41.1066 24.7407C41.1066 24.2963 41.4672 23.9259 41.8999 23.9259C42.1343 23.9259 42.3146 24 42.4768 24.1666Z" fill="#333333"/>
<path d="M47.3349 24.4074C48.3986 24.4074 49.4623 23.8148 50.0393 22.8889L50.9768 23.5C50.2015 24.7408 48.7772 25.5556 47.3168 25.5556C44.6124 25.5 42.9898 23.2593 42.9898 21.1111C42.9898 18.7037 44.937 16.7037 47.3168 16.6667C48.8854 16.6667 50.4179 17.5926 51.103 18.963L50.1114 19.5C49.6246 18.5 48.4707 17.8148 47.3168 17.8148C45.55 17.8333 44.1076 19.3148 44.1076 21.1111C44.1076 22.463 45.0992 24.3704 47.3349 24.4074ZM55.5743 16.6667C57.9722 16.6667 59.9013 18.6482 59.9013 21.1111C59.9013 23.5741 57.9722 25.5556 55.5743 25.5556C53.1764 25.5556 51.2472 23.5741 51.2472 21.1111C51.2472 18.6482 53.1764 16.6667 55.5743 16.6667ZM55.5743 24.4074C57.3412 24.4074 58.7835 22.9259 58.7835 21.1111C58.7835 19.2963 57.3412 17.8148 55.5743 17.8148C53.8074 17.8148 52.3651 19.2963 52.3651 21.1111C52.3651 22.9259 53.8074 24.4074 55.5743 24.4074ZM68.7932 14.4445L68.7752 21.1111C68.7752 23.5741 66.846 25.5556 64.4481 25.5556C62.0682 25.5556 60.1211 23.5741 60.1211 21.1111C60.1211 18.6482 62.0682 16.6667 64.4481 16.6667C65.7282 16.6667 66.8821 17.2408 67.6754 18.1482V14.4445H68.7932ZM64.4481 24.4074C66.233 24.4074 67.6573 22.9445 67.6573 21.1111C67.6573 19.2778 66.233 17.8148 64.4481 17.8148C62.6812 17.8148 61.2389 19.2963 61.2389 21.1111C61.2389 22.9259 62.6812 24.4074 64.4481 24.4074ZM73.4984 24.4074C74.5621 24.4074 75.6259 23.8148 76.2028 22.8889L77.1403 23.5C76.3651 24.7408 74.9407 25.5556 73.4804 25.5556C70.776 25.5 69.1533 23.2408 69.1533 21.1111C69.1533 18.6852 71.1005 16.7037 73.4804 16.6667C75.0489 16.6667 76.5814 17.5926 77.2665 18.963L77.5009 19.4259L71.2267 23.463C71.7676 24 72.5068 24.3889 73.4984 24.4074ZM70.2711 21.1111C70.2711 21.5556 70.3793 22.0371 70.5957 22.5185L76.0045 19.0556C75.4275 18.2963 74.4539 17.8148 73.4804 17.8148C71.7135 17.8333 70.2711 19.3148 70.2711 21.1111Z" fill="#E7AC07"/>
</g>
<defs>
<clipPath id="clip0_40_56">
<rect width="71.6667" height="11.1111" fill="white" transform="translate(5.83334 14.4445)"/>
</clipPath>
</defs>
</svg>
