<svg width="3" height="20" viewBox="0 0 3 20" fill="none" xmlns="http://www.w3.org/2000/svg">
<g clip-path="url(#clip0_85_4)">
<rect width="3" height="20" fill="#333333"/>
<mask id="path-1-inside-1_85_4" fill="white">
<path d="M2.00002 12C-0.785355 5.03639 1.33336 2.66667 2.00002 0H-65C-67 -3.01334e-06 -68 1 -68 3V16.5C-68 18.5 -66.5 20 -65 20H2.00002C2.66669 18.6667 3 14.5 2.00002 12Z"/>
</mask>
<path d="M2.00002 0L22.373 5.09323L28.8963 -21H2.00002V0ZM2.00002 12L-17.4981 19.799L-17.498 19.7991L2.00002 12ZM2.00002 20V41H14.9788L20.783 29.3915L2.00002 20ZM-65 20L-65 -1L-65 -1L-65 20ZM-65 0L-65 21H-65V0ZM-18.373 -5.09323C-18.2214 -5.69972 -17.8556 -6.72758 -18.4784 -4.9608C-18.9009 -3.76244 -19.6487 -1.53113 -20.0699 1.32546C-20.9913 7.57456 -19.9414 13.6906 -17.4981 19.799L21.4981 4.20096C21.2891 3.67844 21.4079 3.82734 21.5081 4.50946C21.5592 4.85738 21.6001 5.30723 21.6002 5.84037C21.6003 6.37821 21.5591 6.92156 21.4809 7.45183C21.3246 8.5122 21.0573 9.21586 21.1326 9.00229C21.1585 8.9287 21.1872 8.84943 21.2587 8.65191C21.3179 8.48848 21.4189 8.2098 21.524 7.90826C21.7329 7.30916 22.0695 6.30738 22.373 5.09323L-18.373 -5.09323ZM-17.498 19.7991C-18.0912 18.3162 -18.2583 17.2165 -18.31 16.8181C-18.3717 16.3419 -18.3717 16.0305 -18.3671 15.8624C-18.3627 15.7022 -18.3465 15.3859 -18.2559 14.8747C-18.2095 14.6126 -18.1189 14.1599 -17.9475 13.5647C-17.798 13.0457 -17.4568 11.9562 -16.783 10.6085L20.783 29.3915C23.2439 24.4696 23.5553 19.2716 23.6171 17.0126C23.6957 14.1436 23.5091 9.22864 21.4981 4.20095L-17.498 19.7991ZM2.00002 -1H-65V41H2.00002V-1ZM-65 -1C-58.7458 -1.00001 -54.1115 1.99822 -51.4533 4.95174C-48.6358 8.08233 -47 12.1784 -47 16.5H-89C-89 27.962 -80.1245 41 -65 41L-65 -1ZM-47 16.5V3H-89V16.5H-47ZM-47 3C-47 5.23704 -47.5735 10.772 -52.4008 15.5992C-57.228 20.4265 -62.763 21 -65 21L-65 -21C-69.237 -21 -76.272 -19.9265 -82.0992 -14.0992C-87.9265 -8.27196 -89 -1.23704 -89 3H-47ZM-65 21H2.00002V-21H-65V21Z" fill="#FFC62F" mask="url(#path-1-inside-1_85_4)"/>
</g>
<defs>
<clipPath id="clip0_85_4">
<rect width="3" height="20" fill="white"/>
</clipPath>
</defs>
</svg>
