<svg width="16" height="16" viewBox="0 0 16 16" fill="none" xmlns="http://www.w3.org/2000/svg">
<g clip-path="url(#clip0_104_2)">
<path d="M8 2.74178e-09C5.91079 -5.46575e-05 3.90445 0.817176 2.40987 2.27699C0.915303 3.7368 0.0510965 5.72337 0.002 7.812C0.094 4.033 2.968 1 6.5 1C10.09 1 13 4.134 13 8C13 8.39782 13.158 8.77936 13.4393 9.06066C13.7206 9.34196 14.1022 9.5 14.5 9.5C14.8978 9.5 15.2794 9.34196 15.5607 9.06066C15.842 8.77936 16 8.39782 16 8C16 5.87827 15.1571 3.84344 13.6569 2.34315C12.1566 0.842855 10.1217 2.74178e-09 8 2.74178e-09ZM8 16C10.0892 16.0001 12.0956 15.1828 13.5901 13.723C15.0847 12.2632 15.9489 10.2766 15.998 8.188C15.906 11.967 13.032 15 9.5 15C5.91 15 3 11.866 3 8C3 7.60218 2.84196 7.22064 2.56066 6.93934C2.27936 6.65804 1.89782 6.5 1.5 6.5C1.10218 6.5 0.720644 6.65804 0.43934 6.93934C0.158035 7.22064 0 7.60218 0 8C0 10.1217 0.842855 12.1566 2.34315 13.6569C3.84344 15.1571 5.87827 16 8 16Z" fill="white"/>
</g>
<defs>
<clipPath id="clip0_104_2">
<rect width="16" height="16" fill="white"/>
</clipPath>
</defs>
</svg>
