<svg width="44" height="44" viewBox="0 0 44 44" fill="none" xmlns="http://www.w3.org/2000/svg">
<path d="M19.1895 1.82999C20.3241 -0.523542 23.6759 -0.523542 24.8105 1.82999L29.9835 12.5608C30.2901 13.1968 30.8032 13.7099 31.4392 14.0165L42.17 19.1895C44.5235 20.3241 44.5235 23.6759 42.17 24.8105L31.4392 29.9835C30.8032 30.2901 30.2901 30.8032 29.9835 31.4392L24.8105 42.17C23.6759 44.5235 20.3241 44.5235 19.1895 42.17L14.0165 31.4392C13.7099 30.8032 13.1968 30.2901 12.5608 29.9835L1.82999 24.8105C-0.523542 23.6759 -0.523542 20.3241 1.82999 19.1895L12.5608 14.0165C13.1968 13.7099 13.7099 13.1968 14.0165 12.5608L19.1895 1.82999Z" fill="#222222"/>
</svg>
