<svg width="183" height="282" viewBox="0 0 183 282" fill="none" xmlns="http://www.w3.org/2000/svg">
<path d="M-16.7735 18.8793C-14.3726 1.61046 6.92093 -5.23525 18.9355 7.39912L73.7157 65.0052C76.962 68.4189 81.27 70.6309 85.936 71.2796L164.673 82.2265C181.942 84.6275 188.787 105.921 176.153 117.936L118.547 172.716C115.133 175.962 112.921 180.27 112.273 184.936L101.326 263.673C98.9246 280.942 77.6311 287.787 65.6165 275.153L10.8364 217.547C7.59007 214.133 3.28204 211.921 -1.38393 211.273L-80.1208 200.326C-97.3896 197.925 -104.235 176.631 -91.601 164.617L-33.9949 109.836C-30.5811 106.59 -28.3692 102.282 -27.7205 97.6161L-16.7735 18.8793Z" fill="#222222"/>
</svg>
