<svg width="227" height="248" viewBox="0 0 227 248" fill="none" xmlns="http://www.w3.org/2000/svg">
<path d="M81.4504 -14.8968C83.8514 -32.1657 105.145 -39.0114 117.159 -26.377L171.94 31.2291C175.186 34.6428 179.494 36.8547 184.16 37.5035L262.897 48.4504C280.166 50.8514 287.011 72.1449 274.377 84.1594L216.771 138.94C213.357 142.186 211.145 146.494 210.496 151.16L199.55 229.897C197.149 247.166 175.855 254.011 163.841 241.377L109.06 183.771C105.814 180.357 101.506 178.145 96.84 177.496L18.1032 166.55C0.834356 164.149 -6.01135 142.855 6.62301 130.84L64.2291 76.0603C67.6428 72.814 69.8548 68.506 70.5035 63.84L81.4504 -14.8968Z" fill="#222222"/>
</svg>
