<svg width="24" height="26" viewBox="0 0 24 26" fill="none" xmlns="http://www.w3.org/2000/svg">
<path d="M12.5705 6.25413C12.9677 5.53212 14.0051 5.53213 14.4023 6.25413L17.056 11.0783C17.1523 11.2534 17.2969 11.3973 17.4725 11.4928L22.3112 14.124C23.0391 14.5198 23.0391 15.5648 22.3112 15.9606L17.4725 18.5918C17.2969 18.6873 17.1523 18.8311 17.056 19.0063L14.4023 23.8304C14.0051 24.5524 12.9677 24.5524 12.5705 23.8304L9.91685 19.0063C9.8205 18.8311 9.67594 18.6873 9.50032 18.5918L4.66161 15.9606C3.93367 15.5648 3.93367 14.5198 4.66161 14.124L9.50032 11.4928C9.67594 11.3973 9.8205 11.2534 9.91685 11.0783L12.5705 6.25413Z" fill="#FFC62F"/>
<path d="M4.61758 1.24035C4.81616 0.879344 5.33489 0.879344 5.53347 1.24035L6.48859 2.97668C6.53677 3.06426 6.60904 3.13618 6.69686 3.18393L8.43656 4.12994C8.80053 4.32786 8.80053 4.85035 8.43656 5.04827L6.69686 5.99428C6.60904 6.04203 6.53677 6.11396 6.48859 6.20154L5.53347 7.93787C5.33489 8.29887 4.81616 8.29887 4.61758 7.93786L3.66246 6.20154C3.61428 6.11396 3.54201 6.04203 3.45419 5.99428L1.71449 5.04827C1.35052 4.85035 1.35052 4.32786 1.71449 4.12994L3.45419 3.18393C3.54201 3.13618 3.61428 3.06425 3.66246 2.97668L4.61758 1.24035Z" fill="#FFC62F"/>
</svg>
