<svg width="428" height="115" viewBox="0 0 428 115" fill="none" xmlns="http://www.w3.org/2000/svg">
<mask id="path-1-inside-1_61_2" fill="white">
<path d="M250 96.8798C127 51.5 46.8333 84.715 0 96.8798V0H428V98.5C404.833 110.665 335.562 128.447 250 96.8798Z"/>
</mask>
<path d="M0 96.8798H-420V639.91L105.589 503.39L0 96.8798ZM250 96.8798L395.377 -297.158L250 96.8798ZM428 98.5L623.258 470.352L848 352.341V98.5H428ZM428 0H848V-420H428V0ZM0 0V-420H-420V0H0ZM105.589 503.39C112.505 501.594 118.683 499.877 123.273 498.581C127.604 497.359 132.34 495.993 134.972 495.238C141.474 493.373 144.104 492.651 146.006 492.163C148.837 491.436 145.278 492.507 138.478 493.191C135.108 493.53 131.284 493.745 127.162 493.725C123.03 493.705 119.066 493.451 115.395 493.009C111.729 492.567 108.833 491.995 106.81 491.504C104.803 491.017 104.05 490.706 104.623 490.917L395.377 -297.158C270.471 -343.241 155.259 -352.737 54.3973 -342.59C-29.7974 -334.12 -121.031 -305.62 -105.589 -309.631L105.589 503.39ZM104.623 490.917C301.884 563.695 494.933 537.735 623.258 470.352L232.742 -273.352C261.684 -288.55 284.492 -295.476 296.712 -298.655C311.154 -302.412 323.877 -304.289 335.005 -305.016C358.011 -306.52 378.622 -303.339 395.377 -297.158L104.623 490.917ZM848 98.5V0H8V98.5H848ZM428 -420H0V420H428V-420ZM-420 0V96.8798H420V0H-420Z" fill="#1E1E1E" mask="url(#path-1-inside-1_61_2)"/>
</svg>
